PathFileType	4	(X/Y/Z)	OpenSim_Sub06_CSStiffKnee_Magnet.trc
DataRate	CameraRate	NumFrames	NumMarkers	Units	OrigDataRate	OrigDataStartFrame	OrigNumFrames
100	100	36	8	m	100	3583	7164
Frame#	Time	torso_imu_offset_imu	pelvis_imu_offset_imu	tibia_r_imu_offset_imu	femur_r_imu_offset_imu	tibia_l_imu_offset_imu	femur_l_imu_offset_imu	toes_r_imu_offset_imu	toes_l_imu_offset_imu
				X1	Y1	Z1	X2	Y2	Z2	X3	Y3	Z3	X4	Y4	Z4	X5	Y5	Z5	X6	Y6	Z6	X7	Y7	Z7	X8		Y8	Z8	

3583	35.82000000	-0.93210182	-0.13307685	0.16554810	-0.46854539	0.17048929	-0.78887419	-0.63414082	-0.44115639	-0.29070710	-0.78290203	-0.26627948	0.07354994	-0.53305335	0.63679603	0.06930912	-0.41048321	0.38532364	0.40959060	-0.59399091	-0.19586218	-0.48895846	-0.75389627	-0.02116118	-0.42455031
3584	35.83000000	-0.93269219	-0.13092570	0.16264489	-0.47239563	0.16596474	-0.78618319	-0.62669885	-0.45083538	-0.28863668	-0.78711315	-0.26896265	0.07956191	-0.51728549	0.65403393	0.06350417	-0.41273308	0.38063936	0.41423239	-0.59577314	-0.20023899	-0.49213046	-0.75903383	-0.01066625	-0.41834512
3585	35.84000000	-0.93656760	-0.13048585	0.15722307	-0.47208081	0.17127572	-0.79182412	-0.61376992	-0.46810770	-0.28370127	-0.79069247	-0.26278899	0.07514866	-0.49920784	0.66557878	0.06202236	-0.41314686	0.37301461	0.40902262	-0.59529242	-0.20550199	-0.48858678	-0.77083875	-0.00538293	-0.39981561
3586	35.85000000	-0.93373121	-0.12479999	0.15795499	-0.46589241	0.18189940	-0.79225835	-0.60760374	-0.48611300	-0.27914214	-0.79263528	-0.25237827	0.06323818	-0.48531384	0.67947050	0.05927729	-0.41675066	0.36776803	0.40257903	-0.59333888	-0.20792115	-0.48484121	-0.78699139	0.00767251	-0.38204749
3587	35.86000000	-0.93786776	-0.11996431	0.15681436	-0.46607997	0.18555882	-0.79202785	-0.59105429	-0.51077702	-0.26273491	-0.79180871	-0.25116003	0.06334238	-0.46872674	0.68987665	0.05665716	-0.42893058	0.35934727	0.39775180	-0.60011397	-0.20374670	-0.48781263	-0.79600603	0.02840319	-0.35324020
3588	35.87000000	-0.93892525	-0.11632992	0.15992138	-0.46703910	0.18615867	-0.79621015	-0.58338060	-0.53363454	-0.24380277	-0.79079363	-0.24653537	0.06858645	-0.44902289	0.70404939	0.05838810	-0.43595224	0.35157364	0.39940346	-0.60478525	-0.20323107	-0.49167307	-0.80754307	0.04450415	-0.32424250
3589	35.88000000	-0.94205204	-0.11254664	0.16577689	-0.46552862	0.18702529	-0.79552407	-0.58357951	-0.54912432	-0.21246559	-0.78867068	-0.24697216	0.07031223	-0.42425008	0.71799842	0.05318268	-0.44992053	0.34103524	0.38781456	-0.60996165	-0.19765669	-0.48673535	-0.82597313	0.06627913	-0.29013335
3590	35.89000000	-0.93954877	-0.11244466	0.15989627	-0.46289771	0.18106475	-0.80051241	-0.57532133	-0.55913265	-0.19633619	-0.78373249	-0.25453667	0.07524716	-0.41331067	0.73363531	0.05224978	-0.45756218	0.33010775	0.38063088	-0.60884080	-0.20123006	-0.48629844	-0.83277084	0.08177236	-0.25361090
3591	35.90000000	-0.94073055	-0.10433520	0.16028396	-0.45970835	0.17244354	-0.80788498	-0.57021233	-0.56312216	-0.18963149	-0.78157969	-0.26659881	0.07496990	-0.38766299	0.74059255	0.04490797	-0.46350243	0.31281569	0.36985231	-0.60954486	-0.20046854	-0.48375239	-0.84051835	0.09423618	-0.21649008
3592	35.91000000	-0.94326915	-0.10317885	0.16756346	-0.46430333	0.16399698	-0.80499282	-0.57658859	-0.56482406	-0.17879800	-0.77833769	-0.28001228	0.08197198	-0.36336006	0.75682104	0.03567589	-0.47600717	0.30061978	0.36502134	-0.60765367	-0.20249671	-0.48528468	-0.84399165	0.10820924	-0.16966902
3593	35.92000000	-0.94433339	-0.09722438	0.16908105	-0.45927823	0.15578715	-0.80035057	-0.57333445	-0.56634613	-0.16428869	-0.77785260	-0.28718753	0.08053488	-0.34764735	0.75886482	0.03246895	-0.48474673	0.28605149	0.35910456	-0.60595501	-0.19974953	-0.49279098	-0.85093934	0.13161738	-0.13519804
3594	35.93000000	-0.94199118	-0.09362391	0.16765520	-0.46085765	0.15143458	-0.80409759	-0.57617408	-0.57443203	-0.16681073	-0.76813827	-0.29235447	0.08428188	-0.33475219	0.76555319	0.02799587	-0.49308233	0.26812897	0.35222339	-0.60850154	-0.20402404	-0.48678558	-0.85409128	0.15235179	-0.09728527
3595	35.94000000	-0.94425903	-0.09399017	0.16971245	-0.46120749	0.14736592	-0.81052037	-0.57174870	-0.57223606	-0.17337487	-0.76759786	-0.29791918	0.09115522	-0.32134415	0.77224872	0.02260268	-0.49418655	0.25094311	0.34823306	-0.60461754	-0.20294485	-0.49551888	-0.85324799	0.15888289	-0.05653618
3596	35.95000000	-0.94643218	-0.08755042	0.17026181	-0.46001408	0.13679850	-0.80835599	-0.56848563	-0.57831551	-0.18404231	-0.75493746	-0.30897968	0.09418633	-0.30832576	0.77674589	0.02108547	-0.49842823	0.23357411	0.33721292	-0.60427278	-0.20451600	-0.49307833	-0.84587740	0.17594731	-0.03488804
3597	35.96000000	-0.94277658	-0.08705496	0.16994188	-0.46042535	0.13192256	-0.81350208	-0.56299473	-0.57872014	-0.19403246	-0.75592230	-0.31855056	0.10458761	-0.29911564	0.78196496	0.01375288	-0.49813578	0.22054911	0.33657289	-0.60357523	-0.20747684	-0.49242217	-0.84872557	0.18533785	-0.02717007
3598	35.97000000	-0.94590318	-0.08632431	0.16850095	-0.45692355	0.12707540	-0.81430645	-0.56463848	-0.57393497	-0.20709401	-0.75546317	-0.32659800	0.10206953	-0.29187324	0.77954779	0.00921016	-0.49269395	0.21140853	0.34051311	-0.60283907	-0.20851075	-0.49428927	-0.84798923	0.18255252	-0.03954831
3599	35.98000000	-0.94791610	-0.08448295	0.17334382	-0.45970650	0.12114603	-0.81477957	-0.56193355	-0.57564681	-0.21476713	-0.74850384	-0.33531320	0.10274181	-0.28856945	0.78516072	0.00167070	-0.49352982	0.19813405	0.34037739	-0.59955574	-0.21178120	-0.49405378	-0.84169366	0.17971225	-0.04667707
3600	35.99000000	-0.94510312	-0.08474015	0.16806691	-0.45730662	0.12127988	-0.81656182	-0.55373377	-0.57435541	-0.21638973	-0.74483676	-0.34209684	0.11135719	-0.29729524	0.78237141	-0.00415513	-0.50198564	0.18849335	0.34373643	-0.60481994	-0.21163341	-0.49777141	-0.83945139	0.18345807	-0.05220217
3601	36	-0.94201305	-0.08003820	0.17119482	-0.45096510	0.12108121	-0.81671492	-0.55065830	-0.58045694	-0.21190416	-0.73979478	-0.34738014	0.12641192	-0.30111682	0.78227854	-0.01320762	-0.50509226	0.18310146	0.34412157	-0.60281396	-0.21443304	-0.50364396	-0.83540608	0.18286305	-0.05698675
3602	36.01000000	-0.94847871	-0.07766689	0.17515115	-0.45084686	0.11120631	-0.81977753	-0.55234724	-0.58887967	-0.20747610	-0.73353461	-0.35445966	0.13551148	-0.30869550	0.77526731	-0.02447119	-0.51157929	0.17778287	0.34418066	-0.60450134	-0.21482808	-0.50333306	-0.83706647	0.17628415	-0.07809793
3603	36.02000000	-0.94681832	-0.07745855	0.17383784	-0.45106899	0.10486455	-0.82389237	-0.55434191	-0.59321615	-0.19481038	-0.72955345	-0.36067341	0.12726333	-0.32623741	0.76948219	-0.03185238	-0.52127267	0.16797204	0.34122715	-0.60219425	-0.21447298	-0.50421306	-0.83650403	0.17596382	-0.09431434
3604	36.03000000	-0.94517545	-0.06763721	0.17853839	-0.44635795	0.10316380	-0.82491211	-0.54968761	-0.59713481	-0.18562008	-0.72461826	-0.37189695	0.13511165	-0.33879046	0.76664862	-0.03970876	-0.52368536	0.15666308	0.32295539	-0.60270263	-0.22133359	-0.51131553	-0.83043635	0.16929491	-0.11373044
3605	36.04000000	-0.94655107	-0.07229509	0.17930548	-0.44540879	0.09678620	-0.82639428	-0.54779296	-0.60832152	-0.18110353	-0.72209128	-0.37421926	0.13617139	-0.36059280	0.75297680	-0.03608971	-0.52598944	0.14723146	0.32221494	-0.60166017	-0.22377486	-0.51071831	-0.82596184	0.15700052	-0.12987436
3606	36.05000000	-0.94649245	-0.06923613	0.18113691	-0.44405719	0.09125911	-0.82853433	-0.54531618	-0.61064650	-0.17746931	-0.71983047	-0.38159625	0.12866347	-0.37306636	0.74521911	-0.03848848	-0.52669766	0.14528187	0.32335769	-0.60037122	-0.22399391	-0.51299109	-0.81919517	0.15846494	-0.15136772
3607	36.06000000	-0.94406841	-0.07045795	0.18252046	-0.44437670	0.09289874	-0.82912015	-0.54441262	-0.60767812	-0.17370787	-0.71147399	-0.39195099	0.12694438	-0.39544890	0.73556188	-0.04504782	-0.52938041	0.14303087	0.31476031	-0.59894843	-0.22623279	-0.51610779	-0.81706903	0.15068436	-0.17304887
3608	36.07000000	-0.94820182	-0.06765195	0.17726984	-0.44978859	0.08709316	-0.83681298	-0.54209055	-0.61348996	-0.17362173	-0.71150208	-0.39285969	0.12490889	-0.41324908	0.71979606	-0.05207364	-0.53646193	0.13399638	0.31290385	-0.59577598	-0.22816566	-0.51792665	-0.80892574	0.13781571	-0.19416976
3609	36.08000000	-0.94871646	-0.06025401	0.17823485	-0.44477665	0.08133544	-0.83230441	-0.53273288	-0.61509475	-0.18356631	-0.71302518	-0.39894989	0.11432294	-0.44029689	0.70591239	-0.04790023	-0.53577024	0.13208089	0.30886802	-0.59923877	-0.23472695	-0.51820776	-0.80482337	0.12611415	-0.21480690
3610	36.09000000	-0.94931412	-0.05860909	0.17512922	-0.44009748	0.08236494	-0.83221368	-0.52944763	-0.61450635	-0.18652130	-0.71249558	-0.40649829	0.10836273	-0.46620664	0.69557341	-0.04741994	-0.53902869	0.13002522	0.31061749	-0.59796234	-0.24338728	-0.52237883	-0.79672111	0.11125236	-0.23080352
3611	36.10000000	-0.94084182	-0.05737035	0.18049206	-0.44444162	0.08817095	-0.83792980	-0.53142515	-0.61756727	-0.19570676	-0.70807296	-0.40981526	0.10901975	-0.48289707	0.67431993	-0.04723242	-0.53842731	0.12482625	0.31112406	-0.59404532	-0.24405011	-0.52192950	-0.79272263	0.09710915	-0.25157896
3612	36.11000000	-0.93938854	-0.05526567	0.18513068	-0.44632354	0.08555089	-0.84129166	-0.52680233	-0.62008092	-0.20191771	-0.70051302	-0.41543181	0.10549964	-0.50731999	0.66150777	-0.04622785	-0.53616788	0.11939661	0.30631115	-0.59778524	-0.24741785	-0.52655935	-0.78350898	0.08004476	-0.27153993
3613	36.12000000	-0.94737233	-0.05096795	0.18717040	-0.44152607	0.07908391	-0.83965051	-0.51818448	-0.62561790	-0.20807534	-0.69906475	-0.42271073	0.10249642	-0.53227347	0.64253116	-0.03791819	-0.53901654	0.10930120	0.31022072	-0.59410181	-0.25378704	-0.52486897	-0.77845649	0.06394514	-0.28713468
3614	36.13000000	-0.94527248	-0.05226480	0.18576813	-0.44019248	0.08067693	-0.83848744	-0.51289428	-0.62179082	-0.20730149	-0.70094872	-0.42671318	0.09774372	-0.55497471	0.62206925	-0.03735017	-0.53767622	0.11307064	0.31759747	-0.59333866	-0.26013952	-0.53009580	-0.77129972	0.04849099	-0.30345118
3615	36.14000000	-0.94375888	-0.04830941	0.18784151	-0.44109690	0.08396060	-0.83637213	-0.50846913	-0.62860625	-0.20470316	-0.70195934	-0.42955250	0.09180968	-0.57552316	0.59941925	-0.03875716	-0.53820561	0.10654473	0.32102664	-0.59553765	-0.26486989	-0.53354461	-0.76611119	0.03638680	-0.31864275
3616	36.15000000	-0.94497318	-0.04883004	0.18719595	-0.44259604	0.08245929	-0.83136489	-0.50483722	-0.63590387	-0.20887011	-0.69235187	-0.43047616	0.09725452	-0.58996865	0.57466419	-0.03128054	-0.53432291	0.09895930	0.32503570	-0.59354819	-0.26754494	-0.53477725	-0.75921329	0.02304911	-0.32299130
3617	36.16000000	-0.94543721	-0.04451819	0.18848674	-0.43926957	0.08569783	-0.83890113	-0.50117893	-0.64000526	-0.20783905	-0.68845159	-0.43834105	0.09512715	-0.61536596	0.55218664	-0.02790539	-0.53788018	0.10064247	0.32624209	-0.59084850	-0.27403932	-0.53898185	-0.75497066	0.01194662	-0.34278770
3618	36.17000000	-0.94147703	-0.04026374	0.19269783	-0.43516413	0.07800823	-0.84226905	-0.49681228	-0.64343375	-0.20393596	-0.68776915	-0.44497221	0.09153493	-0.63426087	0.53094715	-0.02806140	-0.53381483	0.09633413	0.33543067	-0.59209451	-0.28064417	-0.54109613	-0.75293679	-0.00267837	-0.35599934
